<svg width="1259" height="1257" viewBox="0 0 1259 1257" fill="none" xmlns="http://www.w3.org/2000/svg">
<rect x="0.141113" width="1258" height="1257" rx="300" fill="black"/>
<path d="M400.782 592.814C400.782 565.441 378.592 543.25 351.218 543.25C348.481 543.25 346.262 545.469 346.262 548.206V664.186C346.262 691.559 368.452 713.75 395.826 713.75C398.563 713.75 400.782 711.531 400.782 708.794V592.814Z" fill="white"/>
<path d="M275.881 548.206C275.881 545.469 278.1 543.25 280.837 543.25C308.211 543.25 330.401 565.441 330.401 592.814C330.401 595.551 328.182 597.77 325.445 597.77H280.881C278.12 597.77 275.881 595.532 275.881 592.77V548.206Z" fill="white"/>
<path d="M205.5 592.814C205.5 565.441 227.691 543.25 255.064 543.25C257.802 543.25 260.021 545.469 260.021 548.206V664.186C260.021 691.559 237.83 713.75 210.457 713.75C207.719 713.75 205.5 711.531 205.5 708.794V592.814Z" fill="white"/>
<path d="M504.345 713.5L457.821 544.398H474.579L511.962 689.594H512.313L553.329 544.398H569.384L610.399 689.594H610.751L648.134 544.398H664.892L618.368 713.5H603.368L561.532 570.766H561.181L519.345 713.5H504.345ZM703.798 715.727C679.774 715.727 663.368 701.312 663.368 679.75V679.516C663.368 658.773 679.071 646.234 707.079 644.359L745.048 642.016V631.469C745.048 613.891 733.915 603.227 714.931 603.227C697.235 603.227 685.634 611.781 683.056 625.609L682.821 626.781H667.821L667.938 625.375C670.282 604.398 687.626 589.398 715.165 589.398C743.056 589.398 760.517 605.102 760.517 630.062V713.5H745.048V691.234H744.579C737.899 705.766 721.845 715.727 703.798 715.727ZM679.188 679.75C679.188 693.109 690.438 702.133 706.962 702.133C728.29 702.133 745.048 687.133 745.048 667.68V654.203L708.954 656.664C689.853 657.836 679.188 666.156 679.188 679.516V679.75ZM787.587 713.5V544.398H803.056V713.5H787.587ZM831.884 713.5V544.398H847.353V713.5H831.884ZM924.462 715.727C890.243 715.727 869.032 691.469 869.032 652.914V652.797C869.032 614.594 890.595 589.398 923.173 589.398C955.751 589.398 976.259 613.773 976.259 650.219V656.312H884.735C885.204 685.375 900.79 701.898 924.813 701.898C942.743 701.898 955.165 692.875 959.149 679.633L959.384 678.578H974.735L974.501 679.75C970.282 700.609 950.829 715.727 924.462 715.727ZM923.056 603.227C902.313 603.227 886.845 618.109 884.97 644.008H960.673C958.915 617.406 943.915 603.227 923.056 603.227ZM1033.33 715.727C1013.29 715.727 1003.45 706.234 1003.45 684.906V604.633H985.517V591.625H1003.45V558.695H1019.38V591.625H1043.52V604.633H1019.38V684.672C1019.38 698.148 1025.13 702.719 1036.49 702.719C1039.31 702.719 1041.77 702.367 1043.52 702.133V714.789C1041.06 715.258 1037.08 715.727 1033.33 715.727Z" fill="white"/>
</svg>
