<svg width="1048" height="486" viewBox="0 0 1048 486" fill="none" xmlns="http://www.w3.org/2000/svg">
<path d="M295.282 207.314C295.282 179.941 273.091 157.75 245.718 157.75C242.981 157.75 240.762 159.969 240.762 162.706V278.686C240.762 306.059 262.952 328.25 290.326 328.25C293.063 328.25 295.282 326.031 295.282 323.294V207.314Z" fill="white"/>
<path d="M170.381 162.706C170.381 159.969 172.6 157.75 175.337 157.75C202.711 157.75 224.901 179.941 224.901 207.314C224.901 210.051 222.682 212.27 219.945 212.27H175.381C172.619 212.27 170.381 210.032 170.381 207.27V162.706Z" fill="white"/>
<path d="M100 207.314C100 179.941 122.191 157.75 149.564 157.75C152.301 157.75 154.52 159.969 154.52 162.706V278.686C154.52 306.059 132.33 328.25 104.956 328.25C102.219 328.25 100 326.031 100 323.294V207.314Z" fill="white"/>
<path d="M398.844 328L352.321 158.898H369.079L406.462 304.094H406.813L447.829 158.898H463.884L504.899 304.094H505.251L542.634 158.898H559.391L512.868 328H497.868L456.032 185.266H455.68L413.844 328H398.844ZM598.298 330.227C574.274 330.227 557.868 315.812 557.868 294.25V294.016C557.868 273.273 573.571 260.734 601.579 258.859L639.548 256.516V245.969C639.548 228.391 628.415 217.727 609.43 217.727C591.735 217.727 580.134 226.281 577.555 240.109L577.321 241.281H562.321L562.438 239.875C564.782 218.898 582.126 203.898 609.665 203.898C637.555 203.898 655.016 219.602 655.016 244.562V328H639.548V305.734H639.079C632.399 320.266 616.344 330.227 598.298 330.227ZM573.688 294.25C573.688 307.609 584.938 316.633 601.462 316.633C622.79 316.633 639.548 301.633 639.548 282.18V268.703L603.454 271.164C584.352 272.336 573.688 280.656 573.688 294.016V294.25ZM682.087 328V158.898H697.555V328H682.087ZM726.384 328V158.898H741.852V328H726.384ZM818.962 330.227C784.743 330.227 763.532 305.969 763.532 267.414V267.297C763.532 229.094 785.094 203.898 817.673 203.898C850.251 203.898 870.759 228.273 870.759 264.719V270.812H779.235C779.704 299.875 795.29 316.398 819.313 316.398C837.243 316.398 849.665 307.375 853.649 294.133L853.884 293.078H869.235L869.001 294.25C864.782 315.109 845.329 330.227 818.962 330.227ZM817.555 217.727C796.813 217.727 781.344 232.609 779.469 258.508H855.173C853.415 231.906 838.415 217.727 817.555 217.727ZM927.829 330.227C907.79 330.227 897.946 320.734 897.946 299.406V219.133H880.016V206.125H897.946V173.195H913.884V206.125H938.024V219.133H913.884V299.172C913.884 312.648 919.626 317.219 930.993 317.219C933.805 317.219 936.266 316.867 938.024 316.633V329.289C935.563 329.758 931.579 330.227 927.829 330.227Z" fill="white"/>
</svg>
