<svg width="200" height="200" viewBox="0 0 200 200" fill="none" xmlns="http://www.w3.org/2000/svg">
<path fill-rule="evenodd" clip-rule="evenodd" d="M174.02 0H193.627H197.549H197.549L200 1.96079V48.5295L198.039 50.4903H198.039H194.117H193.627L191.667 48.5295V8.33335L175.49 8.33335L151.471 8.33335L149.51 6.37256V1.96079L151.471 0H174.02ZM91.6664 26.961H108.333L118.137 28.9218L126.961 32.3532L133.823 35.7845L141.666 41.1767L148.529 47.5493L152.122 52.1225L152.451 52.4511L153.155 53.4369L153.921 54.412L154.355 55.1162L154.902 55.8825L154.868 55.9504L157.843 60.7846L160.294 65.1964L164.215 78.4317L165.196 83.8239V113.726L163.235 115.687H159.313L157.353 113.726L156.862 92.1572L155.882 82.3533L152.941 72.0591L149.019 64.216L144.608 57.3532L143.627 55.3924L141.666 54.412L138.235 50.4905L132.843 46.0787L126.47 42.1571L119.117 38.7257L106.862 36.2747L99.0193 35.7845L89.7056 36.7649L80.8821 38.7257L71.5684 43.1375L64.7056 48.0395L59.8037 52.4513L56.3723 55.8826L55.3919 57.8434L52.4507 59.8042L48.5291 59.314L46.5684 57.3532V53.9218L49.9997 49.5101L55.3919 43.6277L60.2938 39.7061L67.1566 35.2943L74.9997 31.3728L83.8233 28.4316L91.6664 26.961ZM92.6472 42.1563H107.353L115.686 44.1171L121.569 46.5681L124.02 48.5289V53.4309L121.569 55.3917L117.157 54.9015L110.784 52.4505L106.373 51.4701L99.0198 50.9799L91.1766 51.9603L83.8237 54.4113L75.4904 58.8231L69.608 64.2152L65.6864 69.1172L60.7845 78.4309L58.8237 86.2741L58.3335 92.6467V121.568L56.3727 127.941L53.9217 132.843L50.0002 137.745L47.059 140.196L46.0786 140.686H42.157L39.7061 138.235V135.294L43.6276 130.392L46.5688 126.47L49.0198 120.588L49.51 116.176L50.0002 85.2937L51.4708 78.4309L54.4119 70.5878L58.3335 63.725L61.7649 59.3132L68.1374 52.9407L75.4904 48.0387L81.3727 45.0975L89.7061 42.6465L92.6472 42.1563ZM104.412 73.0392H95.5883L93.6275 73.5294L88.7256 75.9804L84.3138 79.902L82.353 82.8432L80.3923 87.7451L79.9021 123.039L78.9217 128.432L75.9805 137.255L72.0589 144.118L67.6472 150L63.7256 154.902L64.2158 158.824L65.686 160.294L65.6864 160.294L65.6865 160.295H70.5884L74.51 156.373L74.3218 156.311L76.9609 153.432L79.9021 148.53L84.3138 140.196L86.7648 133.333L88.7256 124.02L89.2158 92.6471L89.706 89.2157L91.1766 86.2746L92.157 84.3138H93.1374L97.0589 81.8628H102.941L105.882 83.3334L107.843 84.3138V85.2942L109.804 88.2353L110.784 92.6471L111.275 121.079L113.235 123.039H117.647L119.118 122.059V85.7844L118.137 83.3334L114.216 78.4314L109.804 75L104.412 73.0392ZM98.5296 57.3517L106.373 57.8419L115.196 60.2929L120.588 63.7243L125.49 68.136L128.922 72.0576L133.334 80.391L134.804 86.2733V90.1949L132.843 92.6459L129.412 93.1361L126.961 91.6655L125.49 88.2341L123.53 81.8615L120.098 75.9792L115.196 71.5674L108.334 68.136L104.902 67.1556L99.0198 66.6654L93.1375 67.6458L87.2551 70.0968L81.863 74.0184L78.9218 77.4498L75.4904 84.3125L74.51 88.2341L74.0198 92.6459L73.5296 105.881L71.5688 107.842H67.1571L65.1963 105.881V86.2733L66.6669 80.391L70.0983 73.5282L73.5296 69.1164L78.4316 64.2145L82.3531 61.7635H83.3335V60.7831L93.6277 57.8419L98.5296 57.3517ZM134.314 55.3947H130.392L127.941 57.3554V61.277L129.902 63.728L134.314 69.1202L139.216 78.4339L141.177 86.2771V125.983L139.706 136.767L137.745 144.611L138.236 149.022L140.196 150.493H144.118L145.098 150.003L146.569 147.552L148.53 139.218L150 127.944V84.8065L149.51 81.8653L147.549 75.4927L144.608 68.63L139.706 60.7868L134.314 55.3947ZM193.627 149.512H193.628H198.039H198.04L200 151.473V197.551L198.04 200.002H198.039H151.471L149.51 198.042V198.041V193.63V193.629L151.471 191.668H165.196H175.98H175.981L175.981 191.669H191.667V151.473L193.627 149.512ZM6.37255 149.512H1.96078L0 151.473V198.042L2.45098 200.002H48.5294L50.4902 198.042V193.63L48.5294 191.669H8.33333V151.473L6.37255 149.512ZM18.1377 0H4.41176H1.96078L0 2.45099V48.5295L1.96078 50.4903H6.37255L8.33333 48.5295V8.33335L32.3534 8.33335L48.5294 8.33335L48.5299 8.33335L50.4906 6.37256V1.96079L48.5299 0H48.5294H18.1377ZM128.431 100H132.843L134.804 101.471V126.471L133.333 136.765L130.392 148.04L126.47 158.824L120.588 170.098L118.443 173.96L118.627 174.021L118.3 174.218L118.137 174.51L116.188 175.485L116.176 175.492L112.255 175.002L110.784 173.531V173.53L110.294 169.609L110.294 169.609L110.294 169.608L114.216 162.745L118.137 154.902L121.078 147.549L124.51 132.843L125.49 125.49L126.47 101.471L128.431 100ZM101.961 88.2346H100.49H98.039L96.0782 90.1954L95.588 116.176L94.6076 126.96L92.6469 135.294L89.7057 143.137L84.8037 152.45V156.372L85.7841 157.843L87.7449 158.823L91.6665 158.333L91.6668 158.332L93.137 156.862L93.1374 156.861L98.039 147.548L101.959 135.787L101.961 135.784L103.922 124.999V90.1954L102.941 88.7248L102.328 88.6022L101.961 88.2346ZM112.255 129.903L115.686 130.393L117.647 132.354L118.137 134.805L116.119 142.474L116.176 142.647L115.773 143.791L115.686 144.118L114.987 146.018L113.235 150.98L113.199 150.871L112.255 153.432L107.843 161.765L103.432 168.628L99.51 174.02L97.059 176.471L96.0786 176.962H93.1375L90.6865 175.001L90.1963 171.569L92.1571 168.138L96.5688 162.256H97.5492L98.5296 159.805L102.451 151.962L106.863 141.177L109.314 132.354L110.785 130.393L112.255 129.903ZM41.667 64.7072H41.6665L39.7057 65.6876L36.7645 74.5111L34.8083 83.803L34.8037 83.8237V83.8249V113.726V113.727L34.8049 113.728L35.2939 114.706L36.109 115.032L36.7645 115.688H40.6861L41.6668 114.707L41.667 114.707L42.6473 113.727L43.1375 92.6484L43.6277 85.2955L44.6081 79.9033L45.0983 78.4327H45.0986L47.5495 71.0797V67.1582L46.5691 65.6876L45.7518 65.3606L45.0983 64.7072H45.0978H44.1182H41.667ZM67.1567 115.196H71.5685L73.5293 117.156V123.529L71.5685 131.372L68.1371 139.215L63.2351 145.588L58.8234 150L55.392 153.921L54.4116 154.411H50.49L48.5293 152.451L48.0391 149.019L49.5097 146.568L54.4116 141.666L56.8626 139.215L59.8038 134.803L62.7449 127.451L64.2155 122.058L65.1959 117.156L67.1567 115.196ZM83.8232 159.313H80.3921L75.9804 163.234L74.5098 166.176L74.5102 166.178L74.5098 166.178L75 169.119L76.4706 170.59V170.587L76.9607 171.078H80.8823L82.8431 169.117L83.3333 168.627H83.8232L85.2928 166.667L85.2938 166.666H85.2941L86.7647 164.215L86.2745 160.783H86.2741L84.3137 159.313H83.8232ZM140.196 152.942H139.706H137.255H136.764L135.784 153.432L133.823 156.863L133.333 161.275L135.294 163.726L138.725 164.216L140.196 163.236H140.196L142.647 159.314V155.393L142.157 154.412L140.93 153.676L140.196 152.942Z" fill="url(#paint0_linear_368_74)"/>
<defs>
<linearGradient id="paint0_linear_368_74" x1="0" y1="100.001" x2="200" y2="100.001" gradientUnits="userSpaceOnUse">
<stop stop-color="#BFB4F9"/>
<stop offset="1" stop-color="#A999FA"/>
</linearGradient>
</defs>
</svg>
