<svg width="100" height="129" viewBox="0 0 100 129" fill="none" xmlns="http://www.w3.org/2000/svg">
<path fill-rule="evenodd" clip-rule="evenodd" d="M73.8764 0H75.2809L81.7416 3.93258L84.2697 5.61798V17.4157L76.4045 22.191L75 23.0337L73.5955 22.7528L66.573 18.5393L64.6067 17.1348V5.89888L66.8539 4.21348L73.8764 0ZM39.045 1.68569L37.3596 1.40479L30.618 5.33738L28.6517 6.18008V6.74187H28.0899L23.0337 9.83176L21.6293 11.2363L21.9102 12.9216L25.8427 15.4497L28.3708 16.8542L31.7416 19.1014L37.3596 22.4722L39.045 22.1913L45.2248 18.2587L48.3146 16.5733L53.6517 13.2025L54.2135 12.079L53.6517 10.3936L50.8427 8.70817L49.4382 8.14637V7.58457L46.6292 6.18008L39.045 1.68569ZM20.2248 15.1688H22.1911L25.5618 17.416L28.6517 19.1014L33.427 22.1912L37.3596 24.7193L38.7641 25.0002V24.4384L44.3821 21.0677L49.7191 17.6969L51.6854 16.5733L53.9326 15.1688H55.618L56.1798 16.2924V32.8654L54.7753 34.2699L48.3146 38.2025L45.7866 39.8879L42.4158 41.5733L38.7641 43.8205H37.0787L31.4607 40.4497L29.7753 39.607L26.9663 37.9216L22.7529 35.3935L19.9439 33.7081L19.663 33.1463V15.7306L20.2248 15.1688ZM17.4157 33.9888H7.58427L5.33708 34.2697L3.37079 35.1124L1.1236 37.0787L0 39.8877V51.9664H73.5955V43.8203L72.7528 40.7304L71.9101 39.3259L69.6629 36.7978L67.1348 35.1124L64.0449 33.9888H58.427L57.8652 34.2697L53.0899 37.3596L49.4382 39.8877L46.6292 41.2922L42.6966 43.8203L38.764 46.0675H37.0786L36.5168 45.7866L31.4607 42.6967L28.3708 41.0113L26.1236 39.6068L21.9101 36.7978L17.4157 33.9888ZM87.3596 54.4944H0V115.73L0.561798 117.978L2.24719 121.629L5.61798 125.281L9.26966 127.247L12.6404 128.09H87.6404L89.0449 127.809L92.6966 126.405L96.0674 123.876L96.3483 123.034L97.191 122.191L98.8764 119.663L100 116.011V104.214L79.7753 103.933L78.6517 103.652L75.5618 102.247L73.3146 100.281L71.6292 97.472L70.7865 94.663V91.0113L71.3483 89.045L72.7528 86.236L73.8764 84.8315L76.6854 82.8652L80.0562 81.7416L100 81.4607V66.854L98.8764 63.2023L97.191 60.3933L94.382 57.3034L90.7303 55.3371L87.3596 54.4944ZM100 86.7977H80.8989L78.3708 87.6404L76.4045 89.3258L75.5618 91.573V94.1011L75.8427 95.2247L76.9663 96.9101L78.3708 98.3146L80.618 98.8764H100V86.7977Z" fill="url(#paint0_linear_367_29)"/>
<defs>
<linearGradient id="paint0_linear_367_29" x1="0" y1="64.045" x2="100" y2="64.045" gradientUnits="userSpaceOnUse">
<stop stop-color="#BFB4F9"/>
<stop offset="1" stop-color="#A999FA"/>
</linearGradient>
</defs>
</svg>
